<svg id="Layer_1" data-name="Layer 1" xmlns="http://www.w3.org/2000/svg" xmlns:xlink="http://www.w3.org/1999/xlink" viewBox="0 0 147.5 55.4"><defs><style>.cls-1{fill:#ffe600;}.cls-2{fill:url(#linear-gradient);}.cls-3{fill:url(#linear-gradient-2);}.cls-4{fill:url(#linear-gradient-3);}.cls-5{fill:url(#linear-gradient-4);}.cls-6{fill:url(#linear-gradient-5);}.cls-7{fill:url(#linear-gradient-6);}.cls-8{fill:url(#linear-gradient-7);}.cls-9{fill:url(#linear-gradient-8);}.cls-10{fill:url(#linear-gradient-9);}.cls-11{fill:url(#linear-gradient-10);}.cls-12{fill:url(#linear-gradient-11);}.cls-13{fill:url(#linear-gradient-12);}</style><linearGradient id="linear-gradient" x1="38.99" y1="81.92" x2="162.36" y2="81.61" gradientUnits="userSpaceOnUse"><stop offset="0" stop-color="#008797"/><stop offset="1" stop-color="#bf1e2e"/></linearGradient><linearGradient id="linear-gradient-2" x1="38.99" y1="81.94" x2="162.36" y2="81.62" xlink:href="#linear-gradient"/><linearGradient id="linear-gradient-3" x1="38.99" y1="81.97" x2="162.36" y2="81.66" xlink:href="#linear-gradient"/><linearGradient id="linear-gradient-4" x1="38.99" y1="82" x2="162.36" y2="81.69" xlink:href="#linear-gradient"/><linearGradient id="linear-gradient-5" x1="38.99" y1="82.04" x2="162.36" y2="81.73" xlink:href="#linear-gradient"/><linearGradient id="linear-gradient-6" x1="39.02" y1="93.14" x2="162.38" y2="92.82" xlink:href="#linear-gradient"/><linearGradient id="linear-gradient-7" x1="39.02" y1="93.17" x2="162.38" y2="92.86" xlink:href="#linear-gradient"/><linearGradient id="linear-gradient-8" x1="39.02" y1="93.23" x2="162.38" y2="92.91" xlink:href="#linear-gradient"/><linearGradient id="linear-gradient-9" x1="39.02" y1="93.24" x2="162.38" y2="92.93" xlink:href="#linear-gradient"/><linearGradient id="linear-gradient-10" x1="39.02" y1="93.28" x2="162.38" y2="92.97" xlink:href="#linear-gradient"/><linearGradient id="linear-gradient-11" x1="39.02" y1="93.33" x2="162.38" y2="93.02" xlink:href="#linear-gradient"/><linearGradient id="linear-gradient-12" x1="39.02" y1="93.37" x2="162.38" y2="93.05" xlink:href="#linear-gradient"/></defs><path class="cls-1" d="M49,55.1a24.6,24.6,0,0,0-5.4.4c-1.8.3-3.6,1.2-5.4,1.4-5.3.5-8.1,4.5-6.7,9.6a4.6,4.6,0,0,0,.7,1.4,1.2,1.2,0,0,0,2.1-.4,36.4,36.4,0,0,0,1.2-5.3c.6-3.2.7-3.3,4.4-2.8-.3,1.2-.7,2.3-.9,3.4-1,6-2.1,12.1-3,18.2-.2,1.7-.7,2.7-2.6,2.9s-3.3.8-5,1L9.1,86.7c-.2-2-.3-3.4-.4-4.8H8C7.5,87,6.8,92.1,6.6,97.2s1,5.5,5.2,5.5c10.2,0,20.3-.4,30.5-.6v-.6l-1.2-.3c-4.3-1-5-2-4.7-6.3s.8-10.3,1.6-15.4,2.4-12.9,3.8-19.4c.7-2.8,2.5-4,5.4-4.1h4.3l9.2.4C56.9,55.9,53,55.4,49,55.1ZM9.2,93.2s-.7-.1-.8-.7-.2-1.3-.3-2.6a.9.9,0,0,1,.3-1h0l2.6.5s.4,5,1.6,6.2S9.6,95.7,9.2,93.2Zm14.7,1.2c-8.9.2-8,.7-8.8-1.2l11-.3C25.9,94.4,24.9,94.4,23.9,94.4Zm1.9-2.7-9.4.7a2.2,2.2,0,0,1-2.6-1.7l14.6-1.1C27.9,91.3,27,91.7,25.8,91.7Zm9.1-.2a1.2,1.2,0,0,1-.9,1c-.5,3.1-4.4,2.9-4.4,2.9,1.6-1.5,2.1-7.7,2.1-7.7L35,87h0a2,2,0,0,1,.4,1.3C35.2,90,34.9,91.5,34.9,91.5Z" transform="translate(-1.3 -47.3)"/><path class="cls-1" d="M139.2,61.6l-18.9-2.8c-22.4-3.4-44.9-6.4-67.6-7.7l-6.4-.2c-2.1,0-3.8.6-4.4,3-.3-1.1-.4-2.4-1-2.8a6.3,6.3,0,0,0-3.1-.2,87.5,87.5,0,0,0-11.4.9,81.5,81.5,0,0,0-10.1,2.8,8.6,8.6,0,0,1,5.2-3.9,64,64,0,0,1,12.8-2.9c10.5-1.1,20.9-.2,31.3,1.4,23.8,3.7,47.6,7.8,71.3,11.7l2.3.5Z" transform="translate(-1.3 -47.3)"/><path class="cls-1" d="M48.1,74.1c7.1-4.8,13.6-9.3,20.2-13.6,4.5-2.9,9.6-3.3,14.7-2.5,14,1.9,28,4.1,42,6.4-3.4,1.1-7-1.7-10,.3a18.5,18.5,0,0,0-2.9-1.3l-16.4-2c-5.1-.6-5.1-.6-6.9,4.4v-5c-7.4-1.6-14.9-2.7-21.7,2.4-5.4,3.1-10.2,6.4-15.6,9.5A32.7,32.7,0,0,1,48.1,74.1Z" transform="translate(-1.3 -47.3)"/><path class="cls-1" d="M4.8,71a1.3,1.3,0,0,1-2.3.7h0c-2.7-3.5-.9-10.5,3.6-11,1.8-.2,3.6-.6,5.5-1a1.1,1.1,0,0,1,1,1.9A5,5,0,0,1,11,62c-5.2.8-5.2.8-5.8,6C5.1,69,5,69.9,4.8,71Z" transform="translate(-1.3 -47.3)"/><path class="cls-2" d="M57.3,84.2c.1,1.7-1.4,2.6-3.1,2.6h-10V77h9.3c1.7,0,3.1.9,3.1,2.6a2.2,2.2,0,0,1-1.1,2.1A2.5,2.5,0,0,1,57.3,84.2ZM48,79.3v1.3h4.4A.6.6,0,0,0,53,80c0-.4-.2-.7-.6-.7Zm5.2,5.2c.3,0,.6-.4.6-.7s-.3-.7-.6-.7H48v1.4Z" transform="translate(-1.3 -47.3)"/><path class="cls-3" d="M63.3,77v9.8H59.5V77Z" transform="translate(-1.3 -47.3)"/><path class="cls-4" d="M75.9,77a3.7,3.7,0,0,1,0,7.4H70.3v2.4H66.4V77Zm-1,4.5a.8.8,0,0,0,.6-.2.7.7,0,0,0,0-1.2c-.1-.2-.3-.2-.6-.2H70.3v1.6Z" transform="translate(-1.3 -47.3)"/><path class="cls-5" d="M95,81.5v.7c0,3.7-3,4.8-6.7,4.8s-6.7-1.1-6.7-4.8v-.7c0-3.7,3-4.8,6.7-4.8S95,77.8,95,81.5Zm-3.8.3c0-1.6-1.3-1.9-2.9-2s-2.9.4-2.9,2V82c0,1.6,1.3,1.9,2.9,1.9s2.9-.3,2.9-1.9Z" transform="translate(-1.3 -47.3)"/><path class="cls-6" d="M101.1,77v6.7h7.6v3.1H97.2V77Z" transform="translate(-1.3 -47.3)"/><path class="cls-7" d="M48.7,98V91.3H44.2V88.2H57.1v3.1H52.6V98Z" transform="translate(-1.3 -47.3)"/><path class="cls-8" d="M68.9,88.2a3.6,3.6,0,0,1,3.7,3.7,4.6,4.6,0,0,1-.5,2,4.3,4.3,0,0,1-1.6,1.4L72.6,98h-4l-1.9-2.4H63.3V98H59.5V88.2Zm-5.6,2.9v1.6H68a.7.7,0,0,0,.6-.2,1.4,1.4,0,0,0,.2-.6.8.8,0,0,0-.8-.8Z" transform="translate(-1.3 -47.3)"/><path class="cls-9" d="M79.3,88.2h4.6L89.1,98H84.8L84,96.3H79.1L78.4,98H74.1Zm.9,5.7h2.7L81.6,91Z" transform="translate(-1.3 -47.3)"/><path class="cls-10" d="M103,93.9c-.3,3.3-3.2,4.3-6.7,4.3s-6.7-1-6.7-4.7v-.8c0-3.7,3-4.7,6.7-4.7s6.4,1,6.7,4.3H99.1c-.4-1-1.5-1.2-2.8-1.2s-2.9.3-2.9,1.9v.2c0,1.6,1.3,1.9,2.9,1.9s2.4-.2,2.8-1.2Z" transform="translate(-1.3 -47.3)"/><path class="cls-11" d="M109,94.7V98h-3.8V88.2H109v3.3h1.7l3.6-3.3h5l-5.1,4.9,5.1,4.9h-5l-3.6-3.3Z" transform="translate(-1.3 -47.3)"/><path class="cls-12" d="M121,88.2h11.4v2.5h-7.6V92h7.6v2.2h-7.6v1.3h7.6V98H121Z" transform="translate(-1.3 -47.3)"/><path class="cls-13" d="M145,88.2a3.7,3.7,0,0,1,3.1,5.7,3.4,3.4,0,0,1-1.5,1.4l2.1,2.7h-4l-1.9-2.4h-3.4V98h-3.8V88.2Zm-5.6,2.9v1.6h4.7a.7.7,0,0,0,.6-.2,1.4,1.4,0,0,0,.2-.6.8.8,0,0,0-.8-.8Z" transform="translate(-1.3 -47.3)"/></svg>